<?xml version="1.0" standalone="no"?>
<!DOCTYPE svg PUBLIC "-//W3C//DTD SVG 1.1//EN" "http://www.w3.org/Graphics/SVG/1.1/DTD/svg11.dtd" >
<!--
2013-9-30: Created.
-->
<svg>
<metadata>
Created by iconfont
</metadata>
<defs>

<font id="iconfont" horiz-adv-x="1024" >
  <font-face
    font-family="iconfont"
    font-weight="500"
    font-stretch="normal"
    units-per-em="1024"
    ascent="896"
    descent="-128"
  />
    <missing-glyph />
    
    <glyph glyph-name="check-circle" unicode="&#59261;" d="M699 543h-46.9c-10.2 0-19.9-4.9-25.9-13.3L469 311.70000000000005l-71.2 98.8c-6 8.3-15.6 13.3-25.9 13.3H325c-6.5 0-10.3-7.4-6.5-12.7l124.6-172.8c12.7-17.7 39-17.7 51.7 0l210.6 292c3.9 5.3 0.1 12.7-6.4 12.7zM512 832C264.6 832 64 631.4 64 384s200.6-448 448-448 448 200.6 448 448S759.4 832 512 832z m0-820c-205.4 0-372 166.6-372 372s166.6 372 372 372 372-166.6 372-372-166.6-372-372-372z"  horiz-adv-x="1024" />

    
    <glyph glyph-name="CI" unicode="&#59262;" d="M512 832C264.6 832 64 631.4 64 384s200.6-448 448-448 448 200.6 448 448S759.4 832 512 832z m0-820c-205.4 0-372 166.6-372 372s166.6 372 372 372 372-166.6 372-372-166.6-372-372-372zM730 584.1h-50.4c-4.4 0-8-3.6-8-8v-384.2c0-4.4 3.6-8 8-8H730c4.4 0 8 3.6 8 8V576.1c0 4.4-3.6 8-8 8zM448.6 534.5c49.5 0 83.1-31.5 87-77.6 0.4-4.2 3.8-7.4 8-7.4h52.6c2.4 0 4.4 2 4.4 4.4 0 81.2-64 138.1-152.3 138.1C345.4 592 286 522.5 286 407.6v-49c0-114 59.4-182.6 162.3-182.6 88 0 152.3 55.1 152.3 132.5 0 2.4-2 4.4-4.4 4.4h-52.7c-4.2 0-7.6-3.2-8-7.3-4.2-43-37.7-72.4-87-72.4-61.1 0-95.6 44.9-95.6 125.2v49.3c0.1 81.4 34.6 126.8 95.7 126.8z"  horiz-adv-x="1024" />

    
    <glyph glyph-name="Dollar" unicode="&#59263;" d="M512 832C264.6 832 64 631.4 64 384s200.6-448 448-448 448 200.6 448 448S759.4 832 512 832z m0-820c-205.4 0-372 166.6-372 372s166.6 372 372 372 372-166.6 372-372-166.6-372-372-372zM559.7 407.2l-25.4 5.9V547.4c38-5.2 61.5-29 65.5-58.2 0.5-4 3.9-6.9 7.9-6.9h44.9c4.7 0 8.4 4.1 8 8.8-6.1 62.3-57.4 102.3-125.9 109.2V633c0 4.4-3.6 8-8 8h-28.1c-4.4 0-8-3.6-8-8v-33c-70.8-6.9-126.2-46-126.2-119 0-67.6 49.8-100.2 102.1-112.7l24.7-6.3v-142.7c-44.2 5.9-69 29.5-74.1 61.3-0.6 3.8-4 6.6-7.9 6.6H363c-4.7 0-8.4-4-8-8.7 4.5-55 46.2-105.6 135.2-112.1V135c0-4.4 3.6-8 8-8h28.4c4.4 0 8 3.6 8 8.1l-0.2 31.7c78.3 6.9 134.3 48.8 134.3 124-0.1 69.4-44.2 100.4-109 116.4z m-68.6 16.2c-5.6 1.6-10.3 3.1-15 5-33.8 12.2-49.5 31.9-49.5 57.3 0 36.3 27.5 57 64.5 61.7v-124zM534.3 219V352.7c3.1-0.9 5.9-1.6 8.8-2.2 47.3-14.4 63.2-34.4 63.2-65.1 0-39.1-29.4-62.6-72-66.4z"  horiz-adv-x="1024" />

    
    <glyph glyph-name="compass" unicode="&#59264;" d="M512 832C264.6 832 64 631.4 64 384s200.6-448 448-448 448 200.6 448 448S759.4 832 512 832z m0-820c-205.4 0-372 166.6-372 372s166.6 372 372 372 372-166.6 372-372-166.6-372-372-372zM710.4 600.1c-8 3.1-16.7 2.9-24.5-0.5L414.9 481 296.4 210c-3.6-8.2-3.6-17.5 0-25.7 3.4-7.8 9.7-13.9 17.7-17 3.8-1.5 7.7-2.2 11.7-2.2 4.4 0 8.7 0.9 12.8 2.7l271 118.6 118.5 271c3.6 8.2 3.6 17.5 0 25.7-3.5 7.9-9.8 13.9-17.7 17zM576.8 361.6l26.2-26.2-42.4-42.4-26.2 26.2L380 251.6 447.5 406 422 431.6l42.4 42.4 25.5-25.5L644.4 516l-67.6-154.4zM464.4 474L422 431.6l25.5-25.6 86.9-86.8 26.2-26.2 42.4 42.4-26.2 26.2-86.8 86.9z"  horiz-adv-x="1024" />

    
    <glyph glyph-name="close-circle" unicode="&#59265;" d="M685.4 541.2c0 4.4-3.6 8-8 8l-66-0.3L512 430.4l-99.3 118.4-66.1 0.3c-4.4 0-8-3.5-8-8 0-1.9 0.7-3.7 1.9-5.2l130.1-155L340.5 226c-1.2-1.5-1.9-3.3-1.9-5.2 0-4.4 3.6-8 8-8l66.1 0.3L512 331.6l99.3-118.4 66-0.3c4.4 0 8 3.5 8 8 0 1.9-0.7 3.7-1.9 5.2L553.5 381l130.1 155c1.2 1.4 1.8 3.3 1.8 5.2zM512 831C264.6 831 64 630.4 64 383s200.6-448 448-448 448 200.6 448 448S759.4 831 512 831z m0-820c-205.4 0-372 166.6-372 372s166.6 372 372 372 372-166.6 372-372-166.6-372-372-372z"  horiz-adv-x="1024" />

    
    <glyph glyph-name="frown" unicode="&#59266;" d="M336 475m-48 0a48 48 0 1 1 96 0 48 48 0 1 1-96 0ZM688 475m-48 0a48 48 0 1 1 96 0 48 48 0 1 1-96 0ZM512 832C264.6 832 64 631.4 64 384s200.6-448 448-448 448 200.6 448 448S759.4 832 512 832z m263-711c-34.2-34.2-74-61-118.3-79.8C611 21.8 562.3 12 512 12c-50.3 0-99 9.8-144.8 29.2-44.3 18.7-84.1 45.6-118.3 79.8-34.2 34.2-61 74-79.8 118.3C149.8 285 140 333.7 140 384s9.8 99 29.2 144.8c18.7 44.3 45.6 84.1 79.8 118.3 34.2 34.2 74 61 118.3 79.8C413 746.2 461.7 756 512 756c50.3 0 99-9.8 144.8-29.2 44.3-18.7 84.1-45.6 118.3-79.8 34.2-34.2 61-74 79.8-118.3C874.2 483 884 434.3 884 384s-9.8-99-29.2-144.8c-18.7-44.3-45.6-84.1-79.8-118.2zM512 363c-85.5 0-155.6-67.3-160-151.6-0.2-4.6 3.4-8.4 8-8.4h48.1c4.2 0 7.8 3.2 8.1 7.4C420 259.9 461.5 299 512 299s92.1-39.1 95.8-88.6c0.3-4.2 3.9-7.4 8.1-7.4H664c4.6 0 8.2 3.8 8 8.4-4.4 84.3-74.5 151.6-160 151.6z"  horiz-adv-x="1024" />

    
    <glyph glyph-name="info-circle" unicode="&#59267;" d="M512 832C264.6 832 64 631.4 64 384s200.6-448 448-448 448 200.6 448 448S759.4 832 512 832z m0-820c-205.4 0-372 166.6-372 372s166.6 372 372 372 372-166.6 372-372-166.6-372-372-372zM512 560m-48 0a48 48 0 1 1 96 0 48 48 0 1 1-96 0ZM536 448h-48c-4.4 0-8-3.6-8-8v-272c0-4.4 3.6-8 8-8h48c4.4 0 8 3.6 8 8V440c0 4.4-3.6 8-8 8z"  horiz-adv-x="1024" />

    
    <glyph glyph-name="left-circle" unicode="&#59268;" d="M603.3 568.5l-246-178c-4.4-3.2-4.4-9.7 0-12.9l246-178c5.3-3.8 12.7 0 12.7 6.5V253c0 10.2-4.9 19.9-13.2 25.9L457.4 384l145.4 105.2c8.3 6 13.2 15.6 13.2 25.9V562c0 6.5-7.4 10.3-12.7 6.5zM512 832C264.6 832 64 631.4 64 384s200.6-448 448-448 448 200.6 448 448S759.4 832 512 832z m0-820c-205.4 0-372 166.6-372 372s166.6 372 372 372 372-166.6 372-372-166.6-372-372-372z"  horiz-adv-x="1024" />

    
    <glyph glyph-name="down-circle" unicode="&#59269;" d="M690 491h-46.9c-10.2 0-19.9-4.9-25.9-13.2L512 332.4 406.8 477.8c-6 8.3-15.6 13.2-25.9 13.2H334c-6.5 0-10.3-7.4-6.5-12.7l178-246c3.2-4.4 9.7-4.4 12.9 0l178 246c3.9 5.3 0.1 12.7-6.4 12.7zM512 832C264.6 832 64 631.4 64 384s200.6-448 448-448 448 200.6 448 448S759.4 832 512 832z m0-820c-205.4 0-372 166.6-372 372s166.6 372 372 372 372-166.6 372-372-166.6-372-372-372z"  horiz-adv-x="1024" />

    
    <glyph glyph-name="icons-speed" unicode="&#58964;" d="M480 832A416.32 416.32 0 0 1 64 416a416.192 416.192 0 0 1 186.24-346.752l8-5.248h443.52l8 5.248A416.192 416.192 0 0 1 896 416C896 645.504 709.504 832 480 832z m0-64C674.752 768 832 610.752 832 416c0-120-60.992-224.512-152.768-288h-398.72C188.992 191.488 128 296 128 416 128 610.752 285.248 768 480 768z m0-64c-17.728 0-32-14.272-32-32s14.272-32 32-32 32 14.272 32 32-14.272 32-32 32z m191.232-63.744a32.448 32.448 0 0 1-21.952-9.728l-191.808-192a31.872 31.872 0 1 1 45.056-45.056l192.192 192a32.192 32.192 0 0 1 7.04 35.264 32.64 32.64 0 0 1-30.528 19.52zM288 640c-17.728 0-32-14.272-32-32s14.272-32 32-32 32 14.272 32 32-14.272 32-32 32z m-64-192c-17.728 0-32-14.272-32-32s14.272-32 32-32 32 14.272 32 32-14.272 32-32 32z m512 0c-17.728 0-32-14.272-32-32s14.272-32 32-32 32 14.272 32 32-14.272 32-32 32z m-448-192c-17.728 0-32-14.272-32-32s14.272-32 32-32 32 14.272 32 32-14.272 32-32 32z m384 0c-17.728 0-32-14.272-32-32s14.272-32 32-32 32 14.272 32 32-14.272 32-32 32z"  horiz-adv-x="1024" />

    
    <glyph glyph-name="icons-temperature" unicode="&#58965;" d="M480.768 832a160.768 160.768 0 0 1-160-160v-359.744C282.496 272.256 256 220.032 256 160A224.64 224.64 0 0 1 480-64a224.64 224.64 0 0 1 224 224c0 59.264-25.728 110.976-63.232 151.04V672c0 87.744-72.32 160-160 160z m0-64a96 96 0 0 0 96-96v-370.56c0-8.96 3.712-17.472 10.496-23.424A159.488 159.488 0 0 0 480 0 159.488 159.488 0 0 0 320 160c0 47.488 20.992 89.28 54.016 119.04a31.68 31.68 0 0 1 10.752 23.68V672a96 96 0 0 0 96 96zM448 576v-325.76c-38.272-13.44-64-49.472-64-90.24a96 96 0 0 1 192 0c0 40.768-25.728 76.8-64 90.24V576z"  horiz-adv-x="1024" />

    
    <glyph glyph-name="icons-humidity" unicode="&#58966;" d="M480 832A416.32 416.32 0 0 1 64 416C64 186.496 250.496 0 480 0c2.24 0 4.48 0.256 6.72 0.768 19.52 0.256 39.04 1.984 57.792 4.992a252.288 252.288 0 0 0-24 60.8c-13.248-1.536-26.752-2.56-40.512-2.56A351.552 351.552 0 0 0 128 416C128 610.752 285.248 768 480 768a352.256 352.256 0 0 0 340.992-264c-0.256 0-0.256 0 0 0 1.984-7.744 3.008-15.744 4.48-23.744l14.72-17.28c12.288-13.696 32.576-37.952 54.784-66.944 0.256 6.464 1.024 13.248 1.024 19.968 0 33.472-4.224 67.2-12.224 99.52a83.84 83.84 0 0 1-0.768 4.48A416.768 416.768 0 0 1 480 832z m0-128C321.28 704 192 574.72 192 416a32 32 0 1 1 64 0 223.616 223.616 0 0 0 299.008 211.008l48.96 48.512a287.744 287.744 0 0 1-119.68 28.224C482.688 704 481.408 704 480 704z m191.232-63.744a32.448 32.448 0 0 1-21.952-9.728l-191.808-192a31.872 31.872 0 1 1 45.056-45.056l192.192 192a32.192 32.192 0 0 1 7.04 35.264 32.64 32.64 0 0 1-30.528 19.52zM768 448.768l-24-27.776s-40.96-46.976-81.984-105.472c-20.736-29.248-41.536-61.504-57.536-93.248C588.48 190.528 576 159.744 576 128c0-105.728 86.272-192 192-192s192 86.272 192 192c0 31.744-12.48 62.528-28.48 94.272-16 31.744-36.8 64-57.536 93.248-40.96 58.496-81.984 105.472-81.984 105.472z m0-100.736c14.016-17.024 27.008-31.04 54.016-69.312 19.2-27.712 38.464-57.984 52.48-85.44 14.016-27.264 21.504-52.8 21.504-65.28 0-71.04-56.96-128-128-128-71.04 0-128 56.96-128 128 0 12.48 7.488 38.016 21.504 65.28 14.016 27.52 33.28 57.728 52.48 85.44 27.008 38.272 40 52.288 54.016 69.248z"  horiz-adv-x="1024" />

    
    <glyph glyph-name="icons-sun" unicode="&#58967;" d="M448 832v-195.2a224.832 224.832 0 0 1-100.992-42.24L208.512 732.8l-45.248-45.312 138.24-138.496A218.624 218.624 0 0 1 259.008 448H64v-64h195.008c5.504-37.76 20.48-72 42.496-100.992l-138.24-138.496 45.248-45.248 138.496 138.496c28.992-21.76 63.488-36.992 100.992-42.496V0h64v195.2a222.4 222.4 0 0 1 100.992 42.56l138.496-138.496 45.248 45.248-138.496 138.496A216.32 216.32 0 0 1 700.992 384H896V448h-195.008a216.32 216.32 0 0 1-42.752 100.992l138.496 138.496-45.248 45.248-138.496-138.24A224.832 224.832 0 0 1 512 636.8V832z m32-256C568.768 576 640 504.768 640 416S568.768 256 480 256A159.488 159.488 0 0 0 320 416C320 504.768 391.232 576 480 576z"  horiz-adv-x="1024" />

    
    <glyph glyph-name="icons-air_element" unicode="&#58969;" d="M544 832A160.448 160.448 0 0 1 384 672a32 32 0 1 1 64 0C448 725.44 490.56 768 544 768s96-42.56 96-96S597.44 576 544 576h-448a32 32 0 1 1 0-64h448C632 512 704 584 704 672S632 832 544 832z m-448-384a32 32 0 1 1 0-64H768c71.04 0 128-56.96 128-128 0-71.04-56.96-128-128-128a127.872 127.872 0 0 0-125.44 102.4 32 32 0 1 1-62.72-12.8A192.256 192.256 0 0 1 768 64c105.664 0 192 86.336 192 192s-86.336 192-192 192H96z m0-128a32 32 0 1 1 0-64h256c53.44 0 96-42.56 96-96S405.44 64 352 64 256 106.56 256 160a32 32 0 1 1-64 0C192 72 264 0 352 0S512 72 512 160 440 320 352 320h-256z"  horiz-adv-x="1024" />

    
    <glyph glyph-name="icons-rotate" unicode="&#58973;" d="M170.666667 810.666667v-213.333334h213.333333L317.312 664.021333A338.858667 338.858667 0 0 0 512 725.333333c189.013333 0 341.333333-152.32 341.333333-341.333333s-152.32-341.333333-341.333333-341.333333-341.333333 152.32-341.333333 341.333333H85.333333c0-235.136 191.530667-426.666667 426.666667-426.666667s426.666667 191.530667 426.666667 426.666667S747.136 810.666667 512 810.666667a425.258667 425.258667 0 0 1-256-85.333334L170.666667 810.666667z"  horiz-adv-x="1024" />

    
    <glyph glyph-name="icons-no-synchronize" unicode="&#58974;" d="M512 896L341.333333 725.333333l170.666667-170.666666V682.666667c164.650667 0 298.666667-133.973333 298.666667-298.666667 0-37.546667-7.253333-73.386667-20.010667-106.496l64.682667-64.597333A381.056 381.056 0 0 1 896 384c0 211.712-172.245333 384-384 384V896zM158.165333 798.165333L97.834667 737.834667l768-768 60.330666 60.330666-768 768z m10.496-243.072A381.056 381.056 0 0 1 128 384c0-211.712 172.245333-384 384-384v-128l170.666667 170.666667-170.666667 170.666666v-128c-164.650667 0-298.666667 133.973333-298.666667 298.666667 0 37.546667 7.253333 73.386667 20.010667 106.496L168.661333 555.093333z"  horiz-adv-x="1024" />

    
    <glyph glyph-name="icons-cloud" unicode="&#58975;" d="M832 64H192c-105.728 0-192 86.272-192 192 0 82.752 53.504 155.776 130.24 181.76 10.496 71.68 65.28 126.464 134.528 136.512A256.256 256.256 0 0 0 512 768c93.76 0 178.56-50.752 223.488-131.2C857.024 659.456 960 564.48 960 448c0-14.72-1.728-29.76-5.504-44.48A190.912 190.912 0 0 0 1024 256c0-105.728-86.272-192-192-192zM289.472 543.744l-4.736-31.488C235.008 512 192 468.992 192 416l0.768-27.008-26.24-7.488A128.448 128.448 0 0 1 64 256c0-70.528 57.472-128 128-128h640c70.528 0 128 57.472 128 128a127.36 127.36 0 0 1-60.032 108.032l-22.208 13.952 9.472 24.512c5.76 15.232 8.768 30.528 8.768 45.504 0 70.528-57.472 128-128 128-12.224 0-25.28-2.24-39.744-7.04l-28.032-9.216-11.52 27.008A191.424 191.424 0 0 1 512 704a192 192 0 0 1-188.992-164.736l-4.032-27.52h-27.712z"  horiz-adv-x="1024" />

    
    <glyph glyph-name="icons-heavy_rain" unicode="&#58976;" d="M512 768C394.752 768 292.736 686.528 264.512 574.528c-68.992-10.24-123.776-65.28-134.528-136.768A192.64 192.64 0 0 1 0 256c0-105.728 86.272-192 192-192h64v64H192c-70.528 0-128 57.472-128 128 0 60.8 43.264 113.472 102.528 125.44l26.24 7.552L192 416c0 52.992 43.008 96 92.8 96.256l34.176-0.768 4.032 27.776A192 192 0 0 0 512 704c77.248 0 146.752-46.016 177.024-116.992l11.2-27.52 28.032 9.536c14.464 4.736 27.52 6.976 39.744 6.976 70.528 0 128-57.472 128-128 0-14.976-3.008-30.272-8.96-45.44l-9.024-24.576 22.016-14.016c37.44-23.68 59.968-64 59.968-107.968 0-70.528-57.472-128-128-128v-64c105.728 0 192 86.272 192 192 0 57.472-25.472 111.232-69.504 147.52 3.776 14.72 5.504 29.76 5.504 44.48 0 116.48-103.04 211.52-224.512 188.992A255.872 255.872 0 0 1 512 768zM320 384v-64h64V384z m256 0v-64h64V384z m-256-128v-64h64v64z m128 0v-64h64v64z m128 0v-64h64v64z m128 0v-64h64v64z m-384-128v-64h64v64z m128 0v-64h64v64z m128 0v-64h64v64z m128 0v-64h64v64z m-256-128v-64h64v64z m256 0v-64h64v64z"  horiz-adv-x="1024" />

    
    <glyph glyph-name="icons-wind_gauge" unicode="&#58978;" d="M160 832c-35.008 0-59.52-26.24-73.984-55.04C71.68 748.096 64 711.808 64 672s7.744-76.032 22.016-104.96c14.464-28.8 39.04-55.04 73.984-55.04 35.008 0 59.52 26.24 73.984 55.04 10.24 20.928 15.744 46.208 19.008 72.96h70.528c12.736-62.272 62.208-112 124.48-124.8V448H160C107.264 448 64 404.736 64 352v-256c0-52.736 43.264-96 96-96h640c52.736 0 96 43.264 96 96v256c0 52.736-43.264 96-96 96H512V515.2A160.64 160.64 0 0 1 636.48 640h70.528c3.2-26.752 8.768-52.032 19.008-72.96 14.464-28.8 39.04-55.04 73.984-55.04 35.008 0 59.52 26.24 73.984 55.04 14.272 28.928 22.016 65.216 22.016 104.96s-7.744 76.032-22.016 104.96C859.52 805.76 834.944 832 800 832c-35.008 0-59.52-26.24-73.984-55.04-10.24-20.928-15.744-46.208-19.008-72.96H636.736A160.768 160.768 0 0 1 480 832a160.768 160.768 0 0 1-156.8-128H253.056c-3.2 26.752-8.768 52.032-19.008 72.96C219.52 805.76 194.944 832 160 832z m0-64c0.512 0 8-2.56 16.512-19.776 8.768-17.28 15.488-45.248 15.488-76.224 0-30.976-6.72-59.008-15.488-76.224-8.512-17.28-16-19.776-16.512-19.776-0.512 0-8 2.56-16.512 19.776C134.72 613.056 128 641.024 128 672c0 30.976 6.72 59.008 15.488 76.224 8.512 17.28 16 19.776 16.512 19.776z m320 0C533.504 768 576 725.504 576 672S533.504 576 480 576A95.36 95.36 0 0 0 384 672C384 725.504 426.496 768 480 768z m320 0c0.512 0 8-2.56 16.768-19.776 8.512-17.28 15.232-45.248 15.232-76.224 0-30.976-6.72-59.008-15.232-76.224-8.768-17.28-16.256-19.776-16.768-19.776-0.512 0-8 2.56-16.768 19.776C774.72 613.056 768 641.024 768 672c0 30.976 6.72 59.008 15.232 76.224 8.768 17.28 16.256 19.776 16.768 19.776z m-640-384h640c17.984 0 32-14.016 32-32v-256c0-17.984-14.016-32-32-32h-640a31.616 31.616 0 0 0-32 32v256c0 17.984 14.016 32 32 32zM192 320v-192h576V320z m64-64h448v-64H256z"  horiz-adv-x="1024" />

    
    <glyph glyph-name="icons-customize_view" unicode="&#58979;" d="M160 768C107.264 768 64 724.736 64 672V0h832V672c0 52.736-43.264 96-96 96z m0-64h640c17.984 0 32-14.016 32-32V640H128v32c0 17.984 14.016 32 32 32zM128 576h704v-512H128z m128-64v-256h-32a32 32 0 1 1 0-64H256v-64h64v64h32a32 32 0 1 1 0 64H320V512z m192 0v-128h-32a32 32 0 1 1 0-64H448v-192h64V320h32a32 32 0 1 1 0 64H512V512z m192 0v-256h-32a32 32 0 1 1 0-64h32v-64h64v64h32a32 32 0 1 1 0 64H704V512z"  horiz-adv-x="1024" />

    
    <glyph glyph-name="icons-mind_map" unicode="&#58980;" d="M160 832C107.264 832 64 788.736 64 736S107.264 640 160 640c14.72 0 28.48 3.776 40.96 9.728l145.792-145.728a155.328 155.328 0 0 1-9.28-158.976l-127.744-103.296A96.256 96.256 0 0 1 160 256c-52.736 0-96-43.264-96-96S107.264 64 160 64 256 107.264 256 160a89.6 89.6 0 0 1-6.016 31.744l127.04 103.04c27.968-23.808 63.744-38.784 102.976-38.784 17.28 0 33.472 3.52 49.024 8.512l68.224-109.248A95.232 95.232 0 0 1 576 96c0-52.736 43.264-96 96-96s96 43.264 96 96a96.32 96.32 0 0 1-116.736 93.76L584.96 296.256c21.248 18.752 37.504 43.008 46.464 70.72l137.792-28.224c6.72-46.528 46.72-82.752 94.72-82.752 52.736 0 96 43.264 96 96S916.736 448 864 448a96.64 96.64 0 0 1-81.728-46.528l-143.744 29.504a158.4 158.4 0 0 1-54.016 105.024l66.496 106.496c6.72-1.472 13.76-2.496 20.992-2.496 52.736 0 96 43.264 96 96S724.736 832 672 832 576 788.736 576 736c0-22.272 8-42.752 20.992-59.008l-68.224-109.44A158.464 158.464 0 0 1 480 576c-32.512 0-62.72-9.984-88-26.752L246.272 694.976C252.16 707.52 256 721.28 256 736 256 788.736 212.736 832 160 832z m0-64c17.984 0 32-14.016 32-32s-14.016-32-32-32a31.616 31.616 0 0 0-32 32c0 17.984 14.016 32 32 32z m512 0c17.984 0 32-14.016 32-32s-14.016-32-32-32a31.616 31.616 0 0 0-32 32c0 17.984 14.016 32 32 32z m-192-256C533.504 512 576 469.504 576 416c0-34.56-17.984-64.256-44.992-81.28a31.872 31.872 0 0 1-8.96-4.992C509.184 323.84 494.912 320 480 320A95.36 95.36 0 0 0 384 416C384 469.504 426.496 512 480 512z m384-128c17.984 0 32-14.016 32-32s-14.016-32-32-32a31.616 31.616 0 0 0-32 32c0 17.984 14.016 32 32 32z m-704-192c17.984 0 32-14.016 32-32s-14.016-32-32-32a31.616 31.616 0 0 0-32 32c0 17.984 14.016 32 32 32z m512-64c17.984 0 32-14.016 32-32s-14.016-32-32-32a31.616 31.616 0 0 0-32 32c0 17.984 14.016 32 32 32z"  horiz-adv-x="1024" />

    
    <glyph glyph-name="icons-water" unicode="&#58981;" d="M512 830.528l-23.232-24.512s-72.96-77.248-146.24-175.04C268.992 533.12 192 418.752 192 320c0-176.256 143.744-320 320-320s320 143.744 320 320c0 98.752-76.992 212.992-150.272 311.04-73.472 97.728-146.496 174.976-146.496 174.976z m0-96.512c17.728-19.264 59.264-62.528 118.528-141.504C700.992 497.92 768 380.16 768 320c0-141.76-114.24-256-256-256s-256 114.24-256 256c0 60.224 67.008 177.984 137.472 272.512 59.264 78.976 100.8 122.24 118.528 141.44zM320 320c0-44.8 13.76-92.032 45.44-129.28 32-37.248 82.56-62.72 146.56-62.72v64c-48 0-77.44 16.512-97.472 40.256C394.24 256 384 288.768 384 320z"  horiz-adv-x="1024" />

    
    <glyph glyph-name="icons-dashboard" unicode="&#58982;" d="M480 832A416.64 416.64 0 0 1 64 416 416.64 416.64 0 0 1 480 0 416.64 416.64 0 0 1 896 416 416.64 416.64 0 0 1 480 832z m0-64C674.752 768 832 610.752 832 416S674.752 64 480 64A351.552 351.552 0 0 0 128 416C128 610.752 285.248 768 480 768z m0-64c-17.728 0-32-14.272-32-32s14.272-32 32-32 32 14.272 32 32-14.272 32-32 32z m191.232-63.744a32.448 32.448 0 0 1-21.952-9.728l-191.808-192a31.872 31.872 0 1 1 45.056-45.056l192.192 192a32.192 32.192 0 0 1 7.04 35.264 32.64 32.64 0 0 1-30.528 19.52zM288 640c-17.728 0-32-14.272-32-32s14.272-32 32-32 32 14.272 32 32-14.272 32-32 32z m-64-192c-17.728 0-32-14.272-32-32s14.272-32 32-32 32 14.272 32 32-14.272 32-32 32z m512 0c-17.728 0-32-14.272-32-32s14.272-32 32-32 32 14.272 32 32-14.272 32-32 32z m-448-192c-17.728 0-32-14.272-32-32s14.272-32 32-32 32 14.272 32 32-14.272 32-32 32z m384 0c-17.728 0-32-14.272-32-32s14.272-32 32-32 32 14.272 32 32-14.272 32-32 32z"  horiz-adv-x="1024" />

    
    <glyph glyph-name="icons-vertical_settings_mixer" unicode="&#58983;" d="M128 768v-128h-32c-17.728 0-32-14.272-32-32v-128c0-17.728 14.272-32 32-32H128v-448h64V448h32c17.728 0 32 14.272 32 32v128c0 17.728-14.272 32-32 32H192V768z m320 0v-512h-32c-17.728 0-32-14.272-32-32v-128c0-17.728 14.272-32 32-32H448v-64h64v64h32c17.728 0 32 14.272 32 32v128c0 17.728-14.272 32-32 32H512V768z m320 0v-256h-32c-17.728 0-32-14.272-32-32v-128c0-17.728 14.272-32 32-32h32v-320h64V320h32c17.728 0 32 14.272 32 32v128c0 17.728-14.272 32-32 32H832V768zM128 576h64v-64H128z m640-128h64v-64h-64z m-320-256h64v-64H448z"  horiz-adv-x="1024" />

    


  </font>
</defs>
</svg>
